# xmcd CD database file
#
# Track frame offsets:
#	150
#	23789
#	46504
#	70131
#
# Disc length: 1233 seconds
#
# Revision: 0
# Processed by: cddbd v1.5PL3 Copyright (c) Steve Scherf et al.
# Submitted via: CDex 1.51
#
DISCID=2604cf04
DTITLE=中島みゆき - 地上の星／ヘッドライト・テールライト
DYEAR=2000
DGENRE=JPop
TTITLE0=地上の星
TTITLE1=ヘッドライト・テールライト
TTITLE2=地上の星(TV MIX)
TTITLE3=ヘッドライト・テールライト(TV MIX)
EXTD=YEAR: 2000
EXTT0=
EXTT1=
EXTT2=
EXTT3=
PLAYORDER=
